<svg xmlns="http://www.w3.org/2000/svg" width="24" height="24" fill="none"><path fill="#0074D9" fill-rule="evenodd" d="M1.95.314h19.822c.95 0 1.72.751 1.72 1.677v20.053c0 .925-.77 1.677-1.72 1.677H1.95c-.95 0-1.719-.752-1.719-1.677V1.991c0-.925.77-1.677 1.719-1.677ZM3.77 19.91h3.512V9.339H3.77v10.57ZM5.527 7.896h-.024c-1.178 0-1.94-.812-1.94-1.826 0-1.037.785-1.826 1.987-1.826s1.941.79 1.965 1.826c0 1.014-.764 1.826-1.988 1.826Zm10.91 12.013h3.513v-6.061c0-3.247-1.733-4.758-4.044-4.758-1.865 0-2.7 1.025-3.167 1.745V9.34H9.227c.046.99 0 10.57 0 10.57h3.512v-5.903c0-.317.023-.632.116-.857.254-.632.832-1.285 1.803-1.285 1.27 0 1.779.969 1.779 2.39v5.655Z" clip-rule="evenodd"/></svg>